<?xml version="1.0" standalone="no"?>
<!DOCTYPE svg PUBLIC "-//W3C//DTD SVG 20010904//EN"
 "http://www.w3.org/TR/2001/REC-SVG-20010904/DTD/svg10.dtd">
<svg version="1.0" xmlns="http://www.w3.org/2000/svg"
 width="1024.000000pt" height="1024.000000pt" viewBox="0 0 1024.000000 1024.000000"
 preserveAspectRatio="xMidYMid meet">

<g transform="translate(0.000000,1024.000000) scale(0.100000,-0.100000)"
fill="#000000" stroke="none">
<path d="M4465 7542 c-33 -10 -65 -21 -71 -24 -6 -4 -56 -16 -112 -28 -347
-70 -643 -280 -785 -557 -57 -109 -89 -328 -68 -463 29 -188 105 -334 254
-487 109 -112 108 -103 12 -118 -113 -18 -270 -131 -347 -249 -86 -132 -114
-336 -64 -457 5 -10 -7 -25 -39 -48 -57 -41 -120 -123 -147 -193 -25 -63 -33
-219 -15 -286 10 -39 8 -58 -32 -212 -24 -92 -44 -187 -45 -210 -1 -36 4 -45
45 -83 29 -26 61 -71 84 -117 21 -41 53 -96 71 -121 l34 -47 -78 -6 c-214 -17
-209 -17 -234 -43 l-23 -25 4 -788 c4 -787 4 -788 -17 -815 -17 -21 -19 -31
-11 -53 5 -14 13 -61 16 -104 l6 -78 81 0 c45 0 135 5 201 10 66 6 275 19 465
30 190 12 446 27 570 35 124 8 380 23 570 34 190 11 372 23 405 26 33 3 137
10 230 15 94 6 361 21 595 35 234 14 502 29 595 35 94 5 224 14 290 19 66 6
188 13 270 16 211 8 195 1 195 88 0 39 4 89 9 109 6 26 5 45 -5 63 -17 34 -22
722 -5 754 15 27 14 64 -1 79 -10 10 -14 105 -18 380 -5 342 -6 369 -25 399
-10 18 -34 40 -52 48 -28 13 -32 20 -27 40 7 28 -40 312 -65 395 -14 46 -15
63 -5 105 18 74 16 143 -5 226 -24 91 -59 155 -121 219 l-47 49 13 53 c18 69
18 190 -1 263 -46 176 -193 333 -364 387 -39 13 -71 25 -71 28 0 3 13 13 28
22 46 28 156 140 202 207 98 146 141 282 142 451 2 234 -94 454 -271 630 -147
145 -334 248 -541 297 -58 14 -134 37 -170 51 -56 22 -84 26 -205 30 -119 3
-155 0 -240 -19 -84 -19 -134 -23 -319 -26 -197 -3 -227 -1 -305 18 -121 31
-351 36 -436 11z m328 -61 c52 -10 108 -26 124 -35 40 -20 93 -65 93 -78 0 -6
-8 -4 -18 5 -10 10 -24 17 -31 17 -6 0 -34 11 -62 25 -98 50 -109 49 -49 -5
l55 -50 -55 0 c-33 0 -50 4 -42 9 10 6 7 12 -12 24 -32 21 -37 21 -29 0 5 -14
-1 -12 -28 8 -59 45 -98 60 -177 68 l-77 7 50 8 c28 4 55 9 60 11 27 9 112 3
198 -14z m1066 5 c71 -20 73 -25 9 -25 -57 0 -92 -11 -202 -60 -42 -19 -77
-29 -89 -25 -11 3 -17 2 -14 -2 3 -5 -14 -10 -36 -11 l-42 -3 50 46 c47 43 48
45 20 38 -16 -4 -66 -25 -110 -47 -71 -35 -77 -37 -57 -14 84 90 321 142 471
103z m-491 -55 c10 -6 8 -13 -8 -32 l-21 -24 11 23 c11 23 10 22 -44 -7 -63
-35 -101 -41 -93 -13 2 9 8 25 12 34 5 13 2 15 -17 11 -27 -8 -48 -32 -41 -50
4 -9 -5 -13 -30 -13 -45 0 -67 9 -67 26 0 8 -7 14 -15 14 -8 0 -24 9 -35 20
l-20 20 178 0 c97 0 183 -4 190 -9z m-907 -21 c39 -11 69 -46 69 -80 0 -17 -6
-20 -49 -20 -27 0 -62 7 -77 15 -16 8 -40 16 -54 16 -14 1 -5 5 20 9 37 6 30
7 -43 8 -69 2 -89 5 -94 18 -3 8 -12 13 -19 10 -8 -3 -14 -1 -14 4 0 26 188
40 261 20z m1633 -1 l57 -12 -33 -20 c-18 -12 -37 -20 -41 -19 -5 1 -6 -2 -3
-7 10 -15 -17 -29 -78 -40 -73 -13 -156 -14 -156 -2 0 25 22 62 44 77 21 13
68 24 142 33 6 0 36 -4 68 -10z m-388 -24 c-11 -8 -22 -12 -25 -9 -6 6 19 24
34 24 6 -1 1 -7 -9 -15z m-1505 -32 c13 -21 27 -42 30 -48 9 -13 -200 -14
-220 -1 -11 7 -2 15 35 34 46 24 111 51 126 52 3 0 17 -17 29 -37z m2134 -14
c47 -23 88 -45 90 -49 11 -18 -87 -21 -142 -5 -32 9 -88 18 -125 18 -37 1 -68
6 -68 11 0 4 16 24 35 43 33 33 39 35 80 30 24 -4 83 -25 130 -48z m-1754 4
c13 -15 16 -22 7 -15 -14 11 -17 10 -20 -8 -2 -17 -5 -14 -14 14 -13 43 -6 45
27 9z m1169 24 c0 -2 -10 -12 -22 -23 l-23 -19 19 23 c18 21 26 27 26 19z
m-1464 -45 c-10 -2 -22 0 -28 6 -6 6 0 7 19 4 21 -5 23 -7 9 -10z m716 -27
c159 -33 178 -43 178 -102 l0 -31 -66 24 c-79 28 -92 30 -44 5 59 -32 111 -89
83 -92 -5 0 -31 -2 -60 -5 -76 -7 -201 32 -247 78 -20 21 -6 30 31 23 23 -4
24 -4 8 4 -11 5 -35 10 -52 10 -18 1 -33 5 -33 10 0 19 59 21 134 6 135 -28
99 -6 -54 33 -19 4 -63 8 -97 8 -55 -1 -61 1 -47 14 20 21 72 38 114 39 19 1
88 -10 152 -24z m605 9 c26 -9 55 -23 63 -31 13 -14 13 -14 -7 -4 -26 13 -85
15 -65 2 18 -11 -8 -18 -103 -27 -38 -4 -94 -17 -124 -30 -61 -27 -65 -28 -55
-13 9 15 -30 3 -73 -22 l-33 -18 0 40 c0 38 2 41 46 60 26 10 94 26 152 34 58
8 108 17 110 20 9 9 41 5 89 -11z m-1597 -19 c17 -9 30 -19 30 -24 0 -4 -19
-14 -42 -20 -64 -19 -190 -79 -214 -102 -13 -12 -32 -19 -46 -17 -20 3 -16 9
42 55 50 41 179 121 198 123 2 0 16 -7 32 -15z m2520 -65 c37 -28 73 -57 79
-64 19 -23 -3 -26 -40 -6 -77 43 -182 90 -202 91 -21 1 52 26 82 28 7 1 44
-22 81 -49z m-900 9 c0 -4 -20 -14 -45 -23 -24 -10 -43 -22 -42 -29 1 -6 -7
-13 -18 -15 -11 -2 -27 -9 -35 -16 -17 -13 -38 -24 -124 -61 -65 -28 -86 -31
-86 -13 0 6 -10 22 -22 35 -18 19 -20 27 -11 41 6 9 16 16 22 14 6 -1 37 9 69
22 31 13 91 29 132 36 41 6 82 13 90 14 25 5 70 1 70 -5z m131 -29 c36 -10 98
-65 86 -77 -4 -3 -7 -1 -7 5 0 7 -7 12 -17 12 -14 0 -14 -2 3 -22 10 -13 12
-17 4 -10 -8 6 -37 12 -65 12 -39 0 -53 4 -63 20 -7 12 -28 22 -53 26 -35 6
-39 8 -23 17 11 6 35 14 54 18 19 4 37 7 40 8 3 0 21 -4 41 -9z m-1011 -16 c5
-5 -6 -15 -30 -25 -25 -11 -37 -13 -34 -5 8 20 -47 17 -83 -5 -18 -12 -43 -37
-54 -57 -18 -34 -19 -28 -4 27 3 11 22 34 42 51 34 30 40 32 95 28 32 -2 62
-9 68 -14z m75 -60 c18 -8 43 -26 56 -40 l22 -24 -25 0 c-14 0 -37 -9 -51 -20
l-25 -20 -41 45 c-22 24 -41 49 -41 54 0 24 60 27 105 5z m853 4 c7 -7 12 -22
12 -35 0 -31 -21 -74 -33 -66 -7 4 -8 -1 -3 -12 6 -17 5 -17 -16 -1 -13 9 -38
23 -56 31 -18 8 -31 19 -28 24 3 5 -3 7 -15 4 -35 -10 -18 19 27 44 43 25 93
30 112 11z m1025 -76 c102 -120 189 -355 185 -507 -1 -53 -2 -49 -10 34 -15
164 -76 301 -203 461 -50 63 -60 86 -32 74 7 -3 34 -31 60 -62z m-1974 3 c0
-5 -6 1 -14 15 -8 14 -14 30 -14 35 0 6 6 -1 14 -15 8 -14 14 -29 14 -35z
m-996 39 c11 -4 3 -18 -35 -57 -109 -114 -181 -267 -197 -421 -7 -66 -9 -72
-10 -31 -4 163 62 350 164 463 48 53 53 56 78 46z m1499 -22 c20 -19 29 -34
24 -43 -18 -36 -56 -93 -56 -84 0 6 -4 4 -9 -3 -6 -10 -10 -7 -13 12 -3 15 -1
23 5 19 11 -6 10 -5 -18 49 -18 36 -18 38 0 58 24 26 29 25 67 -8z m-722 0 c0
-4 -17 -25 -37 -47 -21 -21 -31 -35 -23 -30 9 5 8 0 -4 -13 -25 -29 -40 -28
-25 1 10 20 79 97 86 97 2 0 3 -4 3 -8z m17 -59 c-3 -10 -5 -4 -5 12 0 17 2
24 5 18 2 -7 2 -21 0 -30z m1036 6 c9 -12 17 -31 16 -43 0 -19 -1 -19 -12 -4
-10 15 -16 14 -59 -18 -52 -37 -74 -43 -64 -18 5 14 4 15 -9 4 -11 -9 -15 -9
-15 -1 0 16 28 82 42 99 17 20 78 8 101 -19z m411 -31 l19 -33 -37 34 c-20 19
-36 41 -36 50 0 20 29 -7 54 -51z m-1027 44 c6 -4 21 -28 31 -53 l20 -47 -21
-9 c-35 -16 -85 -4 -111 28 -13 15 -27 25 -30 22 -3 -4 -6 3 -6 15 0 39 78 69
117 44z m177 -35 c34 -36 58 -97 46 -117 -5 -8 -9 -7 -13 4 -4 9 -15 16 -25
16 -19 0 -82 60 -101 97 -8 16 -8 23 2 26 32 14 61 5 91 -26z m254 11 c7 -7
12 -19 12 -27 0 -20 -39 -71 -40 -53 0 10 -5 9 -17 -4 -10 -9 -35 -25 -58 -35
-36 -16 -41 -16 -48 -2 -12 20 19 88 51 114 28 21 82 25 100 7z m-834 -73 c11
-8 15 -15 8 -15 -6 0 -11 -10 -9 -22 1 -15 -4 -23 -18 -26 l-20 -4 20 16 c19
15 19 15 -8 16 -20 0 -27 -4 -25 -16 2 -10 -5 -18 -15 -19 -13 -3 -16 2 -13
23 l5 27 -24 -30 c-22 -27 -25 -28 -25 -9 0 55 79 93 124 59z m1404 -8 c25
-27 39 -81 23 -91 -6 -4 -11 -1 -11 6 0 8 -5 7 -16 -4 -15 -15 -19 -15 -50 0
-26 12 -33 20 -28 34 3 10 0 18 -6 18 -6 0 -8 -4 -5 -10 3 -5 2 -10 -2 -10 -5
0 -14 9 -20 19 -11 17 -9 23 14 40 34 28 74 27 101 -2z m96 -55 c18 -37 29
-99 18 -106 -5 -3 -12 15 -15 40 -4 35 -13 54 -41 83 -20 20 -36 40 -36 45 0
15 61 -36 74 -62z m-1645 36 c-6 -13 -18 -30 -26 -39 -8 -9 -23 -39 -33 -65
-11 -27 -19 -40 -19 -29 -1 38 64 155 86 155 2 0 -2 -10 -8 -22z m376 2 c3 -5
2 -10 -4 -10 -5 0 -13 5 -16 10 -3 6 -2 10 4 10 5 0 13 -4 16 -10z m895 0 c0
-5 -4 -10 -10 -10 -5 0 -10 5 -10 10 0 6 5 10 10 10 6 0 10 -4 10 -10z m-1017
-112 c10 -18 12 -26 6 -17 -11 14 -15 14 -40 2 -29 -14 -54 -10 -44 8 4 5 2 9
-4 9 -5 0 -12 -6 -14 -12 -3 -7 -6 -3 -6 8 -1 12 9 33 20 48 l21 27 22 -20
c11 -11 29 -35 39 -53z m-125 45 c-9 -10 -18 -25 -21 -33 -4 -11 -6 -9 -6 6
-1 21 16 44 33 44 5 0 2 -8 -6 -17z m373 0 c13 -16 12 -17 -3 -4 -10 7 -18 15
-18 17 0 8 8 3 21 -13z m219 -2 c42 -22 60 -53 60 -104 0 -33 -2 -36 -17 -27
-10 5 -29 14 -43 20 -14 5 -43 21 -65 35 -22 14 -50 29 -63 35 -19 8 -21 13
-13 29 6 11 16 22 23 24 29 12 85 6 118 -12z m293 -4 c24 -18 27 -27 22 -50
-4 -15 -17 -32 -29 -38 -17 -10 -19 -9 -8 2 21 22 13 30 -13 13 -14 -9 -40
-18 -58 -20 -18 -2 -54 -16 -81 -30 l-49 -27 7 44 c9 57 27 84 74 108 50 27
100 26 135 -2z m431 -4 c17 -34 6 -62 -34 -85 -20 -12 -32 -13 -36 -6 -4 7 -2
8 4 4 17 -11 15 9 -3 24 -11 9 -15 9 -15 1 0 -7 -4 -10 -10 -6 -5 3 1 17 13
31 12 14 23 31 23 37 1 7 2 15 3 20 3 18 42 4 55 -20z m-1368 1 c-3 -9 -6 -18
-6 -20 0 -3 -4 -3 -10 1 -11 7 -2 35 12 35 6 0 7 -7 4 -16z m1556 -71 c26 -23
23 -88 -7 -149 -13 -27 -72 -103 -130 -169 -137 -155 -196 -271 -288 -566 -72
-229 -74 -235 -125 -291 -53 -59 -139 -99 -228 -105 -84 -7 -87 -3 -49 57 23
37 29 40 70 40 76 0 166 47 196 102 5 10 51 138 101 285 50 148 102 291 116
318 44 86 117 187 195 272 79 85 102 136 79 173 -8 13 -6 21 6 34 21 20 41 20
64 -1z m-1618 -4 c20 -10 23 -15 16 -35 -15 -38 6 -85 64 -144 65 -67 150
-182 199 -270 38 -69 70 -155 162 -444 65 -202 86 -235 166 -263 53 -19 58
-27 32 -55 -23 -26 -54 -22 -101 12 -82 59 -98 91 -198 405 -80 250 -127 340
-253 480 -110 121 -161 208 -161 274 0 47 27 61 74 40z m355 -9 c9 -5 5 -23
-13 -63 -14 -32 -28 -57 -31 -57 -3 0 -4 4 -1 9 3 5 -1 11 -9 15 -8 3 -15 0
-15 -6 0 -16 -31 13 -41 39 -5 15 -4 32 3 48 9 20 18 24 53 23 24 0 48 -4 54
-8z m876 -27 c14 -21 25 -32 25 -26 0 7 -4 15 -10 18 -5 3 -10 15 -10 26 0 15
7 19 34 19 39 0 55 -15 62 -62 l6 -33 -45 0 c-25 0 -47 2 -49 5 -11 17 -46 90
-43 90 3 0 16 -17 30 -37z m-1105 -32 c32 -22 65 -55 78 -80 l24 -41 -54 21
c-120 47 -152 77 -134 125 8 22 26 17 86 -25z m340 20 c13 -26 14 -52 0 -31
-7 11 -10 7 -10 -18 0 -30 2 -33 23 -27 17 5 19 4 7 -4 -26 -18 -78 -13 -90 8
-14 28 -12 52 7 73 21 24 50 23 63 -1z m712 -16 c4 -17 5 -37 1 -45 -3 -8 -6
-18 -5 -22 1 -4 -6 -7 -16 -7 -9 1 -27 -2 -39 -6 -30 -10 -40 15 -19 47 9 13
14 34 11 46 -3 19 0 21 27 19 26 -2 33 -8 40 -32z m238 29 c0 -8 -19 -13 -24
-6 -3 5 1 9 9 9 8 0 15 -2 15 -3z m116 -9 c16 -40 -5 -64 -96 -110 -49 -25
-92 -40 -95 -35 -10 15 21 63 61 95 85 68 119 81 130 50z m-942 -24 c10 -9 27
-33 38 -54 15 -30 23 -37 36 -30 9 4 70 8 135 9 l118 0 45 52 c46 52 70 62 92
40 15 -15 16 -54 2 -63 -6 -3 -7 1 -4 10 8 20 -13 45 -37 45 -10 0 -25 -10
-33 -22 -14 -22 -38 -109 -32 -116 2 -1 19 6 38 18 38 22 88 19 109 -6 15 -18
3 -84 -16 -84 -8 0 -17 -4 -20 -10 -4 -6 1 -7 12 -3 34 12 43 25 43 64 0 36 2
39 27 39 15 0 38 10 51 23 l25 22 -6 -42 c-9 -74 -74 -132 -149 -133 -21 0
-72 14 -114 31 -117 46 -179 48 -289 10 -160 -57 -157 -56 -219 -28 -43 20
-59 34 -75 66 -12 22 -21 52 -21 66 l0 26 23 -21 c12 -12 34 -24 48 -27 21 -4
26 -11 27 -35 1 -31 26 -68 46 -68 8 0 8 2 0 8 -20 13 -36 53 -30 76 6 26 45
47 77 41 12 -3 34 -16 48 -29 l26 -25 -4 47 c-3 44 -23 88 -46 104 -5 4 -20 1
-32 -7 -20 -14 -22 -14 -16 2 13 35 39 37 77 4z m-959 -28 l59 -19 -202 -2
c-111 -2 -202 0 -202 3 0 3 19 15 43 26 36 17 57 19 142 16 58 -3 125 -13 160
-24z m2550 17 c22 -5 48 -19 59 -32 17 -21 17 -23 1 -26 -10 -2 -60 4 -113 13
-52 10 -134 18 -182 19 -48 0 -83 4 -76 8 6 4 22 8 36 8 14 0 32 5 40 10 19
12 182 12 235 0z m-855 -85 c-6 -19 -25 -46 -41 -60 -35 -29 -75 -34 -65 -9 3
9 9 26 12 39 4 15 15 25 34 29 16 3 37 16 47 30 22 30 28 17 13 -29z m-1051 8
c18 -12 37 -21 41 -18 7 5 30 -46 30 -67 0 -4 -18 1 -40 12 -35 18 -90 81 -90
103 0 9 6 6 59 -30z m-641 -92 c22 -6 21 -7 -12 -22 -20 -9 -33 -12 -30 -8 8
14 -15 11 -86 -11 -36 -11 -90 -27 -120 -34 -30 -8 -63 -17 -72 -21 -26 -10
-23 17 5 43 62 58 204 82 315 53z m1704 -61 c-31 -43 -58 -78 -60 -76 -2 2 9
27 23 56 14 29 29 50 32 47 3 -3 16 7 30 24 43 51 34 32 -25 -51z m767 54 c25
-7 48 -11 53 -8 13 8 48 -6 48 -20 0 -7 10 -18 23 -23 24 -11 62 -76 48 -81
-9 -3 -82 21 -285 92 -72 25 -123 47 -115 50 50 17 152 12 228 -10z m-1838
-81 c36 -63 34 -82 -3 -26 -63 97 -62 94 -44 87 8 -3 30 -31 47 -61z m2196 35
c-3 -8 -6 -5 -6 6 -1 11 2 17 5 13 3 -3 4 -12 1 -19z m-2912 -3 c-16 -8 -37
-14 -45 -14 -8 0 1 7 20 14 46 18 64 17 25 0z m1571 -95 c-8 -36 -25 -90 -38
-120 -24 -54 -111 -160 -122 -150 -3 3 2 33 11 65 9 34 16 105 17 163 l1 102
40 -5 c22 -3 54 -2 70 3 17 5 31 8 32 8 1 -1 -4 -31 -11 -66z m-550 -65 c0
-66 5 -137 11 -157 13 -45 3 -48 -31 -11 -42 45 -76 119 -91 198 -8 42 -15 80
-15 83 0 4 28 7 63 7 l62 0 1 -120z m-480 -29 c38 -111 109 -266 147 -321 l21
-30 -23 20 c-55 48 -131 219 -192 429 -21 71 12 2 47 -98z m-965 88 c5 -15 8
-29 5 -31 -2 -2 -8 10 -14 26 -13 38 -5 41 9 5z m544 -24 c17 -4 22 -8 12 -9
-10 0 -33 -12 -50 -25 -45 -35 -119 -64 -216 -87 -68 -17 -85 -18 -92 -7 -11
16 -11 30 -1 44 12 18 117 73 158 83 47 11 148 12 189 1z m2412 -22 c77 -51
147 -142 96 -124 -10 3 -85 28 -168 56 -95 31 -161 59 -180 76 l-30 26 122 -4
c109 -4 125 -6 160 -30z m-454 1 c-4 -15 -8 -17 -14 -8 -8 14 -3 29 11 29 4 0
6 -9 3 -21z m-1743 1 c8 -5 11 -10 5 -10 -5 0 -17 5 -25 10 -8 5 -10 10 -5 10
6 0 17 -5 25 -10z m838 -75 c11 -44 24 -120 27 -170 9 -121 14 -131 36 -65
l19 55 -5 -135 c-3 -88 -1 -125 5 -107 5 16 12 92 15 170 7 165 22 295 36 317
8 11 9 9 5 -10 -4 -14 -13 -133 -21 -265 -20 -339 -33 -399 -108 -516 -87
-136 -112 -216 -104 -328 4 -59 12 -92 36 -142 l32 -64 -41 45 c-42 48 -77
125 -87 195 -6 44 17 142 43 183 28 43 -2 21 -77 -55 -86 -88 -114 -125 -134
-180 -23 -65 -18 -1 7 74 21 63 30 75 149 193 169 166 169 166 169 499 -1 130
-5 256 -11 281 -29 136 -23 151 9 25z m447 -111 c-32 -104 -43 -107 -14 -3 29
109 32 115 36 102 3 -7 -7 -51 -22 -99z m-988 44 c-3 -8 -6 -5 -6 6 -1 11 2
17 5 13 3 -3 4 -12 1 -19z m1674 -17 c74 -13 93 -16 134 -27 29 -7 29 -8 7
-13 l-24 -6 22 -28 c12 -15 20 -30 18 -32 -3 -3 -31 2 -64 11 -32 9 -86 23
-119 31 -54 13 -95 41 -95 63 0 8 39 19 51 13 3 -1 34 -7 70 -12z m-2101 -8
c0 -36 -257 -126 -287 -101 -22 18 -15 25 38 44 28 11 54 25 56 31 3 7 20 13
39 13 19 0 34 5 34 10 0 6 27 10 60 10 33 0 60 -3 60 -7z m1969 3 c-2 -2 -15
-9 -29 -15 -24 -11 -24 -11 -6 3 16 13 49 24 35 12z m-604 -97 c-8 -46 -15
-86 -15 -88 0 -2 -2 -2 -5 1 -3 2 2 42 10 89 8 46 15 86 15 88 0 2 2 2 5 -1 3
-2 -2 -42 -10 -89z m-1020 -18 c-6 -5 -25 47 -25 67 1 9 7 -1 15 -23 8 -21 12
-41 10 -44z m1596 42 c13 -16 12 -17 -3 -4 -10 7 -18 15 -18 17 0 8 8 3 21
-13z m-1213 -103 c0 -23 -1 -22 -8 5 -4 17 -8 46 -8 65 l0 35 9 -40 c4 -22 8
-51 7 -65z m-852 71 c-4 -5 -20 -9 -37 -9 -17 1 -25 4 -18 8 6 4 20 5 30 3 11
-3 19 0 19 8 0 7 3 10 6 6 3 -3 3 -10 0 -16z m61 3 c-3 -3 -12 -4 -19 -1 -8 3
-5 6 6 6 11 1 17 -2 13 -5z m423 -69 c0 -5 -5 -3 -10 5 -5 8 -10 20 -10 25 0
6 5 3 10 -5 5 -8 10 -19 10 -25z m1243 -10 c-3 -9 -8 -14 -10 -11 -3 3 -2 9 2
15 9 16 15 13 8 -4z m-1373 -2 c-68 -22 -132 -51 -170 -76 -36 -24 -41 -25
-25 -7 31 35 147 89 190 89 13 -1 15 -2 5 -6z m-17 -37 c-29 -24 -86 -56 -100
-56 -4 0 11 11 35 25 23 13 50 31 58 40 8 8 20 15 25 15 6 0 -2 -11 -18 -24z
m1567 14 c18 -12 2 -12 -25 0 -13 6 -15 9 -5 9 8 0 22 -4 30 -9z m107 -53 c60
-36 123 -85 86 -67 -12 5 -25 15 -28 20 -4 6 -16 8 -28 5 -15 -4 -18 -3 -9 3
11 7 6 14 -21 31 -19 11 -38 21 -43 21 -5 0 -18 8 -29 17 l-20 16 20 -7 c11
-4 44 -21 72 -39z m-1090 -30 c7 -34 22 -86 34 -115 12 -29 20 -55 17 -58 -11
-10 -60 21 -74 47 -20 40 -16 189 5 189 4 0 12 -28 18 -63z m499 -3 c11 -93
-25 -174 -79 -174 l-23 0 29 61 c16 34 34 87 40 119 6 32 15 57 18 54 4 -2 11
-29 15 -60z m-762 -59 c46 -73 54 -91 36 -80 -21 13 -9 -10 23 -44 28 -31 28
-32 3 -11 -42 37 -107 137 -122 188 -19 60 0 44 60 -53z m1326 74 c19 -11 27
-18 17 -15 -11 4 -30 9 -43 12 -13 3 -24 10 -24 15 0 13 11 11 50 -12z m-2247
-79 c-133 -27 -334 -193 -404 -335 -27 -56 -30 -72 -31 -156 0 -73 -2 -87 -9
-64 -13 40 -4 167 16 231 32 107 138 230 245 285 55 28 132 47 185 47 l40 0
-42 -8z m2795 -27 c53 -39 60 -45 37 -37 -20 8 -31 16 -61 43 -10 9 -34 12
-79 9 -36 -2 -59 0 -52 4 6 4 36 8 65 8 42 0 61 -6 90 -27z m118 -19 c167 -80
255 -226 255 -423 0 -86 -24 -212 -37 -198 -2 2 1 17 7 33 17 41 17 239 0 289
-36 108 -128 203 -278 289 -40 22 -73 44 -73 49 0 13 52 -3 126 -39z m-2897 6
c-23 -21 -24 -21 -1 -10 36 18 25 2 -18 -25 -23 -14 -46 -23 -52 -19 -7 4 -8
3 -4 -4 4 -6 -4 -16 -16 -23 -13 -6 -47 -32 -77 -57 l-54 -46 7 35 c4 18 8 45
9 59 2 18 7 24 20 22 10 -2 33 13 52 33 29 29 39 34 54 25 16 -8 21 -6 25 8 4
11 18 18 42 20 l36 2 -23 -20z m301 10 c23 -7 23 -8 3 -9 -26 -1 -38 -17 -19
-24 8 -3 17 -1 19 6 2 7 8 9 12 5 4 -4 -7 -15 -26 -25 -34 -18 -129 -111 -129
-127 0 -4 12 -5 27 -1 31 8 87 45 79 53 -3 3 -14 -2 -23 -10 -10 -8 -25 -18
-33 -23 -8 -4 -1 4 15 19 17 14 36 23 43 21 7 -3 29 2 49 10 38 16 118 21 95
6 -10 -6 -4 -10 21 -15 54 -10 63 -28 39 -78 -46 -98 -292 -289 -318 -247 -5
9 69 109 87 117 3 1 15 10 25 18 18 14 17 15 -13 10 -66 -11 -66 3 0 68 34 34
73 70 87 79 14 9 -2 5 -34 -9 -92 -39 -116 -53 -113 -67 1 -6 -4 -11 -11 -9
-8 1 -11 -2 -8 -7 3 -5 -6 -16 -20 -26 -30 -19 -94 -13 -94 9 0 21 46 81 59
78 7 -1 10 2 7 7 -4 5 6 22 21 37 l28 26 -34 -18 c-18 -11 -45 -34 -58 -51
-31 -40 -88 -77 -108 -69 -18 6 -20 72 -5 127 23 82 222 154 330 119z m1563
-21 c-10 -17 -27 -38 -37 -47 -11 -9 -5 4 14 31 38 53 50 62 23 16z m807 21
c8 -5 11 -10 5 -10 -5 0 -17 5 -25 10 -8 5 -10 10 -5 10 6 0 17 -5 25 -10z
m-65 -22 c73 -18 173 -78 225 -135 60 -66 111 -166 116 -230 2 -26 1 -41 -3
-33 -5 8 -14 16 -21 18 -8 1 -11 -2 -7 -8 9 -15 -4 -12 -22 5 -8 9 -18 13 -22
9 -3 -4 0 -9 7 -11 6 -3 12 -9 12 -14 0 -12 -27 -11 -33 1 -3 6 -4 5 -3 -2 2
-8 18 -12 42 -11 37 1 38 1 11 -9 -21 -7 -26 -15 -22 -29 12 -37 -5 -17 -80
95 -41 62 -87 124 -102 137 -14 13 -22 17 -18 9 10 -18 -115 96 -132 120 -6 9
-31 25 -54 35 -39 18 -41 20 -18 25 l24 6 -27 6 c-15 3 -25 1 -22 -3 3 -5 0
-9 -5 -9 -6 0 -11 4 -11 9 0 6 -21 11 -47 13 l-48 3 55 12 c57 12 137 8 205
-9z m-275 -18 c-8 -5 -22 -10 -30 -10 -13 0 -13 1 0 10 8 5 22 10 30 10 13 0
13 -1 0 -10z m613 -67 c31 -24 57 -47 57 -50 0 -3 -6 0 -13 6 -8 6 -18 7 -22
3 -5 -4 -6 -2 -2 3 3 6 -3 16 -14 23 -32 20 -22 4 38 -63 60 -68 83 -80 39
-22 -17 22 -23 38 -17 42 6 3 11 1 11 -5 0 -7 9 -25 21 -41 11 -16 18 -33 14
-38 -3 -6 6 -37 20 -70 16 -40 25 -77 24 -108 -1 -28 -4 -38 -6 -23 -9 48 -61
145 -98 183 -37 38 -105 133 -105 147 0 4 -18 20 -40 35 -42 29 -50 38 -25 29
8 -4 15 -1 15 5 0 16 30 -1 103 -56z m-2062 25 c8 -15 8 -18 0 -14 -6 4 -16
16 -22 28 -8 15 -8 18 0 14 6 -4 16 -16 22 -28z m1559 22 c18 -12 2 -12 -25 0
-13 6 -15 9 -5 9 8 0 22 -4 30 -9z m72 -67 c63 -28 153 -114 182 -173 12 -25
13 -30 2 -17 -14 18 -15 18 -32 -2 -17 -20 -18 -19 -89 48 -65 61 -182 138
-193 126 -3 -2 3 -7 12 -11 9 -3 13 -11 9 -17 -3 -6 -1 -7 5 -3 26 16 191
-112 176 -136 -4 -6 -3 -8 4 -4 6 3 14 1 19 -6 4 -7 21 -20 37 -28 22 -11 25
-16 12 -18 -14 -3 -15 -7 -5 -18 7 -8 7 -14 1 -14 -5 0 -13 7 -16 16 -3 9 -13
14 -21 10 -8 -3 -17 -1 -21 5 -3 6 -13 8 -21 5 -8 -3 -49 20 -96 54 -54 40
-74 60 -61 60 11 0 29 7 40 15 15 12 16 14 2 9 -21 -7 -47 15 -40 35 3 8 0 11
-6 7 -11 -7 -44 38 -35 48 11 11 73 6 108 -8 54 -23 101 -63 135 -116 20 -32
36 -47 46 -43 8 3 14 9 14 13 0 13 -26 30 -35 22 -5 -4 -5 -1 -1 6 9 16 -12
44 -27 35 -6 -3 -7 -1 -3 5 10 16 -70 71 -152 105 -37 15 -53 25 -37 22 17 -4
56 -18 87 -32z m-2732 14 c0 -2 -10 -12 -22 -23 l-23 -19 19 23 c18 21 26 27
26 19z m166 -14 c-4 -9 -9 -42 -13 -74 -4 -45 -3 -60 8 -63 8 -2 61 -15 119
-28 l105 -25 -60 -31 c-33 -17 -75 -44 -94 -60 l-35 -29 13 -70 c11 -61 10
-76 -3 -108 l-16 -37 -52 44 c-91 77 -103 78 -179 17 -48 -38 -53 -16 -6 28
72 68 103 67 183 -9 l54 -51 -6 34 c-3 19 -11 52 -16 74 -27 101 -27 104 -6
130 10 13 38 30 61 37 l42 13 -80 5 -80 5 0 82 0 82 -25 -22 c-14 -12 -43 -40
-65 -63 -33 -34 -52 -44 -98 -54 -32 -6 -63 -10 -69 -8 -19 7 93 78 121 78 13
0 44 17 68 38 92 76 143 103 129 65z m2939 -23 c10 -11 16 -20 13 -20 -3 0
-13 9 -23 20 -10 11 -16 20 -13 20 3 0 13 -9 23 -20z m-711 -5 c-4 -8 -11 -15
-16 -15 -6 0 -5 6 2 15 7 8 14 15 16 15 2 0 1 -7 -2 -15z m133 9 c-3 -3 -12
-4 -19 -1 -8 3 -5 6 6 6 11 1 17 -2 13 -5z m-1377 -60 c53 -14 220 -89 220
-99 0 -3 -18 -22 -41 -42 -97 -88 -140 -199 -119 -307 7 -33 21 -77 31 -96
l20 -35 -5 45 c-3 25 -2 64 1 88 6 47 63 148 81 145 6 -2 9 3 6 11 -3 7 2 16
11 20 10 3 14 2 10 -5 -4 -5 -2 -15 3 -22 5 -7 12 -37 15 -67 9 -79 57 -169
122 -228 l54 -50 -55 -52 c-87 -82 -244 -140 -382 -140 -77 0 -201 33 -283 76
-112 59 -214 158 -240 233 -14 40 -4 96 22 122 21 21 80 26 124 9 34 -13 296
-50 353 -50 26 0 41 4 37 10 -3 6 -30 10 -58 10 -113 0 -407 80 -407 110 0 39
134 72 276 68 57 -2 100 0 96 3 -13 12 -183 25 -240 18 -31 -3 -58 -6 -59 -5
-1 1 11 28 27 60 16 32 32 74 35 94 12 73 15 80 42 91 36 13 229 4 303 -15z
m1232 -14 c51 -20 186 -125 175 -136 -2 -2 -32 5 -67 16 -35 11 -88 23 -119
25 l-56 6 73 -20 c96 -27 156 -54 188 -86 24 -24 25 -27 10 -44 -9 -10 -16
-20 -16 -23 0 -10 40 -16 46 -7 10 17 22 9 32 -20 l10 -29 -51 24 c-72 32
-181 54 -305 59 -57 2 -102 1 -99 -1 3 -3 51 -12 108 -20 108 -15 169 -30 169
-43 0 -4 -5 -12 -12 -19 -9 -9 -8 -12 5 -12 9 0 17 7 17 15 0 18 4 18 50 0
l35 -13 -30 -1 c-16 -1 -68 -13 -115 -27 -47 -14 -121 -36 -165 -49 -44 -13
-73 -24 -64 -24 21 -1 152 24 249 48 126 32 148 33 165 8 59 -85 -74 -296
-240 -380 -175 -87 -415 -92 -575 -12 -53 27 -125 101 -146 150 -8 19 -14 63
-14 99 0 61 2 65 37 96 20 18 55 41 77 51 26 12 34 19 21 19 -11 0 -44 -11
-72 -25 -59 -27 -63 -22 -34 40 46 102 212 196 421 239 14 3 -4 3 -38 1 -113
-8 -266 -73 -349 -148 -13 -11 -23 -17 -23 -14 0 19 53 88 98 129 82 73 173
114 337 152 11 3 63 3 115 2 70 -2 110 -9 152 -26z m768 10 c6 -11 8 -20 6
-20 -3 0 -10 9 -16 20 -6 11 -8 20 -6 20 3 0 10 -9 16 -20z m71 -108 c29 -67
22 -64 -16 8 -19 35 -35 67 -35 70 1 12 33 -38 51 -78z m-2492 36 c-16 -30
-118 -137 -144 -151 -11 -5 8 16 42 47 34 32 72 73 83 92 24 38 37 47 19 12z
m-795 -83 l49 -44 -33 -85 c-18 -48 -35 -86 -37 -86 -2 0 -1 41 3 90 l7 91
-32 39 c-42 53 -18 50 43 -5z m2961 25 c-3 -5 -11 -10 -16 -10 -6 0 -7 5 -4
10 3 6 11 10 16 10 6 0 7 -4 4 -10z m-212 -59 c-2 -3 -18 10 -36 29 l-32 34
36 -30 c20 -16 34 -31 32 -33z m167 -7 c27 -20 50 -38 50 -41 0 -6 -56 28 -88
54 -43 35 -17 27 38 -13z m-1313 -67 c13 -18 25 -48 29 -67 l6 -35 -20 31
c-11 18 -26 35 -34 40 -8 5 -6 -2 4 -16 43 -61 58 -108 58 -186 l0 -77 -21 19
c-27 24 -53 83 -69 157 -11 46 -11 68 -1 112 7 30 15 55 19 55 4 0 17 -15 29
-33z m1214 16 c13 -16 12 -17 -3 -4 -10 7 -18 15 -18 17 0 8 8 3 21 -13z m423
-20 c-9 -52 -14 -54 -14 -5 0 23 5 42 10 42 7 0 8 -14 4 -37z m-2553 -41 c-5
-10 -18 -25 -27 -33 -11 -9 -9 -2 6 19 26 35 36 42 21 14z m2239 -93 c51 -25
66 -37 48 -36 -14 1 -25 4 -23 7 2 3 -16 13 -38 23 l-42 17 25 -20 c14 -11 21
-20 16 -20 -19 0 -73 41 -102 77 -50 63 -51 70 -3 29 24 -21 78 -56 119 -77z
m-3083 29 c-3 -8 -6 -5 -6 6 -1 11 2 17 5 13 3 -3 4 -12 1 -19z m788 12 c-3
-5 -16 -15 -28 -21 -19 -9 -19 -8 3 10 28 23 34 26 25 11z m2831 -146 c18 -14
18 -14 -6 -3 -31 14 -36 19 -24 19 6 0 19 -7 30 -16z m-465 -15 c-103 -20
-203 -95 -268 -201 -37 -60 -47 -71 -36 -40 16 43 94 151 132 181 53 42 125
70 176 69 l40 0 -44 -9z m-2808 -29 c-4 -15 0 -20 16 -20 24 0 27 -10 9 -28
-18 -18 3 -15 62 8 63 25 80 25 80 1 0 -33 -22 -81 -36 -81 -8 0 -17 -6 -20
-14 -4 -10 -18 -8 -67 12 -34 13 -90 27 -124 30 -35 2 -63 8 -63 12 0 15 70
61 82 54 7 -4 8 -3 4 4 -4 6 5 18 21 26 37 20 42 20 36 -4z m3351 -31 c15 -22
26 -43 23 -45 -3 -3 -11 5 -18 18 -6 12 -26 35 -43 50 -23 20 -26 26 -11 22
11 -3 33 -23 49 -45z m-3544 14 c0 -9 5 -32 11 -53 l11 -37 79 -6 c44 -4 98
-15 122 -25 l42 -19 -48 -21 c-113 -50 -123 -71 -88 -176 13 -41 15 -59 7 -62
-6 -2 -40 2 -76 10 -63 13 -65 13 -105 -11 -22 -14 -50 -34 -61 -45 -12 -11
-24 -16 -27 -11 -3 4 -10 41 -16 82 -13 81 -21 92 -85 111 -22 7 -51 16 -64
21 l-25 10 29 30 c15 16 62 45 104 65 49 22 88 49 112 76 53 60 39 16 -18 -56
-51 -64 -96 -96 -137 -96 -59 0 -14 -18 63 -24 91 -8 89 -6 65 -96 -21 -79
-19 -82 24 -39 21 22 48 39 60 39 11 0 51 -11 88 -25 l68 -26 -27 28 c-14 15
-36 47 -48 70 -21 41 -21 43 -3 73 10 18 36 43 58 57 l40 25 -59 -6 c-32 -4
-81 -17 -109 -31 -28 -13 -52 -23 -54 -21 -1 1 4 34 13 72 9 38 17 78 18 89 6
48 36 71 36 28z m3200 -5 c19 -11 26 -16 15 -11 -11 4 -51 8 -90 7 -58 -1 -81
-6 -135 -34 -105 -53 -211 -172 -241 -270 -7 -23 -7 -24 -8 -3 -2 53 42 138
105 204 119 123 252 163 354 107z m301 -35 c9 -10 19 -25 23 -33 4 -8 -1 -4
-12 9 -10 13 -30 32 -43 43 -18 15 -19 17 -4 10 11 -6 27 -18 36 -29z m-371
15 c-19 -5 -43 -14 -53 -19 -10 -6 -27 -7 -37 -4 -10 3 -21 1 -25 -4 -4 -7 1
-8 12 -4 14 5 16 3 6 -7 -6 -7 -19 -10 -29 -6 -28 11 -3 27 63 41 68 15 113
17 63 3z m164 -39 c14 -15 15 -18 3 -9 -12 9 -35 11 -80 7 -222 -22 -390 -177
-426 -393 -8 -43 -9 -45 -10 -14 -1 47 24 152 49 200 34 66 126 157 193 190
104 51 233 60 271 19z m-2912 -11 c-8 -8 -9 -4 -5 13 4 13 8 18 11 10 2 -7 -1
-18 -6 -23z m2611 -7 c-36 -30 -85 -62 -74 -48 18 22 3 22 -23 0 -15 -13 -14
-10 3 10 18 20 27 24 33 15 7 -12 9 -11 12 12 2 16 27 29 43 23 8 -3 11 -9 6
-12z m-2573 -21 c-12 -16 -24 -30 -26 -30 -7 0 5 20 24 43 24 27 25 20 2 -13z
m3179 -45 c0 -11 -7 0 -15 25 -17 56 -17 64 1 25 8 -16 14 -39 14 -50z m-421
44 c-7 -5 -20 -9 -29 -9 -9 0 -37 -11 -63 -25 -29 -16 -46 -20 -46 -12 0 7 -6
1 -13 -12 -6 -14 -19 -27 -27 -29 -11 -4 -9 2 5 18 l20 23 -23 -12 c-13 -7
-21 -19 -18 -26 7 -20 -29 -49 -48 -38 -14 8 -12 13 11 35 37 35 149 91 185
92 15 1 28 4 28 8 0 4 7 5 16 1 13 -5 13 -7 2 -14z m308 -3 c47 -22 94 -66 94
-88 0 -6 -16 4 -36 22 -37 32 -60 34 -31 2 23 -25 47 -97 47 -139 0 -30 -2
-34 -15 -23 -8 7 -15 20 -15 29 0 8 -12 50 -26 93 -24 69 -30 78 -59 88 -18 6
-39 9 -46 8 -7 -2 -15 5 -17 15 -5 25 41 22 104 -7z m-3015 -54 c35 -62 39
-89 25 -137 l-13 -40 -13 60 -13 60 -16 -52 c-16 -52 -45 -93 -57 -81 -3 4 -7
19 -8 35 -2 15 -7 38 -11 51 -7 22 -9 22 -26 6 -18 -16 -19 -16 -19 0 0 10 5
26 10 36 10 19 101 109 110 110 3 0 17 -21 31 -48z m2886 22 c21 -19 23 -24 8
-18 -68 25 -179 11 -272 -36 -115 -58 -178 -130 -225 -260 l-27 -75 6 50 c12
104 93 229 192 297 65 45 134 66 218 67 64 1 75 -2 100 -25z m-93 -30 c5 -13
0 -16 -28 -12 -19 2 -33 1 -30 -3 2 -4 -10 -10 -27 -14 -17 -4 -48 -17 -67
-28 -22 -13 -32 -16 -27 -7 6 10 4 12 -9 7 -11 -4 -15 -3 -11 4 4 5 12 8 18 6
6 -2 19 5 30 16 11 11 27 17 38 14 10 -3 17 -1 14 3 -3 5 11 12 32 15 32 6 53
10 59 14 1 1 5 -6 8 -15z m212 -17 c1 -12 1 -13 -3 -2 -2 8 -9 15 -15 15 -5 0
-7 -7 -4 -16 4 -11 1 -14 -11 -12 -10 2 -19 10 -21 19 -2 10 5 15 25 14 19 0
28 -6 29 -18z m131 -19 c-3 -7 -5 -2 -5 12 0 14 2 19 5 13 2 -7 2 -19 0 -25z
m-247 -4 c57 -23 55 -47 -2 -27 -132 45 -342 -58 -394 -192 -20 -54 -31 -53
-13 2 52 161 266 274 409 217z m-3090 -57 l-44 -42 40 46 c21 25 41 44 44 42
2 -2 -16 -23 -40 -46z m3201 21 c1 -18 3 -25 6 -15 2 9 8 17 13 17 13 0 18
-36 8 -54 -12 -21 -42 -22 -34 -1 3 8 1 15 -4 15 -6 0 -10 16 -10 35 0 44 20
46 21 3z m-1811 -38 c15 -28 12 -117 -5 -150 -18 -35 -34 -44 -117 -70 -160
-49 -307 -53 -354 -10 -35 33 -64 96 -64 141 l0 37 88 12 c48 7 121 20 162 30
77 18 176 37 220 43 31 4 57 -8 70 -33z m1620 31 c0 -14 -58 -21 -82 -10 -21
8 -20 9 5 4 19 -4 26 -2 22 5 -4 6 6 10 24 10 17 0 31 -4 31 -9z m-1287 -52
c81 -16 172 -29 202 -29 l55 0 -7 -32 c-9 -51 -42 -124 -66 -146 -53 -49 -167
-48 -340 3 -111 33 -127 52 -127 149 0 44 5 77 13 85 15 16 70 10 270 -30z
m1167 31 c-8 -5 -19 -10 -25 -10 -5 0 -3 5 5 10 8 5 20 10 25 10 6 0 3 -5 -5
-10z m230 -28 c19 -10 36 -25 38 -35 3 -17 1 -16 -35 3 -28 15 -56 20 -109 20
-84 0 -122 -11 -189 -57 l-50 -34 48 45 c84 79 203 102 297 58z m135 -54 c58
-41 73 -84 58 -166 -6 -31 -18 -73 -27 -92 -15 -33 -16 -34 -10 -5 20 92 23
113 24 146 0 45 -28 82 -81 110 -22 11 -37 24 -34 29 10 16 22 12 70 -22z
m-3009 -51 c-23 -52 -69 -98 -83 -83 -3 3 -1 6 5 6 20 0 61 53 79 103 10 27
19 44 21 39 1 -5 -8 -34 -22 -65z m329 -19 c3 -10 8 -27 11 -39 6 -20 5 -20
-21 -3 -24 16 -75 84 -75 99 0 14 80 -40 85 -57z m2528 45 c5 -3 2 -10 -9 -16
-10 -6 -19 -6 -21 -1 -2 5 -42 8 -90 6 -89 -4 -104 5 -36 19 39 8 138 3 156
-8z m117 -22 c12 -23 13 -71 1 -89 -5 -8 -8 6 -9 35 0 26 -5 49 -11 51 -14 5
-15 22 -1 22 5 0 14 -9 20 -19z m50 -106 c-7 -25 -17 -48 -23 -52 -7 -4 -8 1
-3 13 5 10 11 38 13 62 4 29 9 40 16 33 7 -7 6 -25 -3 -56z m-3308 28 c49 -22
57 -28 41 -34 -11 -4 -57 -1 -103 7 -45 8 -85 13 -87 10 -2 -2 15 -7 39 -11
24 -4 57 -14 75 -22 l32 -15 -34 -33 c-31 -32 -37 -34 -111 -36 -48 -1 -79 2
-81 8 -2 6 -13 8 -25 5 -16 -4 -19 -2 -13 8 5 8 4 11 -2 7 -14 -9 -39 22 -45
55 -4 20 0 29 18 36 12 6 25 8 28 5 3 -3 22 -7 43 -8 l38 -3 -40 13 -40 12 40
10 c77 21 162 15 227 -14z m3042 -13 c5 -5 16 -6 25 -3 13 4 14 3 2 -5 -10 -7
-21 -7 -32 -1 -10 5 -25 9 -34 9 -14 0 -12 -6 10 -32 19 -22 25 -38 20 -55 -4
-16 -2 -22 5 -18 16 10 12 -1 -7 -16 -14 -12 -15 -12 -9 0 7 10 3 12 -13 6
-15 -4 -29 -1 -42 11 -18 16 -19 16 -19 0 0 -28 19 -56 46 -66 13 -5 24 -17
24 -25 0 -9 10 -35 22 -58 22 -44 40 -117 29 -117 -4 0 -15 15 -24 33 -10 17
-33 57 -52 87 -43 67 -65 137 -65 206 0 42 4 53 18 57 22 6 84 -3 96 -13z
m-205 -60 c10 -87 -26 -64 -42 27 -5 25 -3 33 11 35 24 6 23 7 31 -62z m73 8
c-5 -81 8 -123 74 -231 51 -85 64 -117 47 -117 -5 0 -20 22 -35 48 -55 98
-105 149 -183 188 -53 26 -87 36 -124 37 -28 0 -47 5 -44 10 3 5 36 7 74 5 51
-4 81 -13 122 -36 l54 -31 -13 37 c-7 20 -13 63 -14 95 0 53 2 57 23 57 21 0
22 -3 19 -62z m-3487 -2 c5 -24 -2 -58 -24 -121 -34 -98 -35 -100 -51 -90 -9
6 -9 9 0 15 19 12 49 86 40 100 -8 13 -11 7 -25 -54 -3 -15 -9 -26 -12 -22 -8
8 48 206 58 206 5 0 11 -15 14 -34z m3763 25 c11 -7 11 -9 -2 -14 -31 -12 -56
-69 -56 -126 0 -42 -3 -52 -12 -43 -6 6 -12 33 -12 60 -1 38 5 58 28 90 31 45
34 46 54 33z m-2828 -48 c38 -51 128 -121 201 -159 l46 -23 7 -83 c4 -46 11
-100 15 -120 5 -21 6 -38 2 -38 -4 0 -32 15 -62 33 -77 46 -132 109 -179 203
-22 45 -59 105 -81 133 l-42 52 23 25 c13 13 26 24 29 24 3 0 22 -22 41 -47z
m2172 -55 c-1 -4 -17 -31 -35 -60 -18 -29 -45 -78 -60 -109 -15 -32 -44 -76
-65 -100 -33 -36 -45 -43 -91 -49 l-53 -7 6 39 c4 21 9 72 13 113 3 41 9 75
13 75 26 0 133 88 170 139 l43 60 31 -47 c16 -26 29 -50 28 -54z m213 72 c0
-35 1 -34 -20 -14 -12 12 -13 19 -4 30 17 21 24 17 24 -16z m347 -39 c-7 -21
-20 -42 -29 -45 -24 -9 -27 0 -9 26 9 12 16 38 16 57 0 33 1 34 17 19 14 -15
15 -23 5 -57z m-3015 22 c-17 -64 8 -105 86 -142 35 -17 84 -48 107 -69 l44
-39 -56 -6 c-76 -9 -127 -32 -138 -63 -6 -14 -10 -56 -10 -94 0 -82 3 -82
-116 -4 -44 30 -90 54 -101 54 -30 0 -104 -28 -125 -47 -22 -20 -23 -13 -7 73
6 34 21 73 36 93 l26 34 -51 49 c-29 27 -52 51 -52 54 0 13 81 -41 119 -79
l44 -46 -30 -38 c-35 -45 -65 -93 -59 -93 2 0 24 11 47 25 24 14 54 25 66 25
12 0 49 -24 85 -55 34 -30 67 -55 71 -55 5 0 8 15 7 33 -1 17 -2 51 -1 75 1
41 3 44 44 62 23 10 59 22 80 25 20 4 37 11 37 16 0 11 -95 39 -131 39 -15 0
-34 7 -43 15 -18 18 -30 75 -24 110 3 14 4 25 1 25 -2 0 -19 -25 -39 -56 l-36
-57 -72 6 c-39 4 -95 15 -124 25 l-53 19 32 7 c17 3 67 6 111 6 l80 0 60 55
c32 30 67 55 77 55 16 0 17 -4 8 -37z m87 -5 c65 -54 118 -117 112 -135 -3 -7
0 -12 6 -10 6 1 17 -13 25 -32 14 -33 14 -34 -5 -20 -11 8 -47 33 -80 56 -33
23 -70 55 -81 70 -11 16 -25 33 -31 40 -10 13 -14 73 -4 73 3 0 29 -19 58 -42z
m711 32 c3 -5 1 -10 -4 -10 -6 0 -11 5 -11 10 0 6 2 10 4 10 3 0 8 -4 11 -10z
m541 -4 c16 -13 19 -27 19 -108 -1 -171 -41 -211 -220 -216 -94 -3 -115 0
-145 16 -49 27 -90 107 -90 177 0 70 23 89 117 99 37 3 100 15 138 25 85 23
155 26 181 7z m212 -5 c24 -6 98 -18 165 -26 133 -15 147 -23 147 -82 0 -53
-38 -139 -75 -172 -42 -37 -83 -45 -189 -38 -104 6 -150 27 -175 81 -37 78
-36 233 2 250 15 7 70 1 125 -13z m-1898 -73 c0 -5 -25 -8 -55 -8 -60 0 -95
24 -95 65 0 20 3 20 75 -14 41 -20 74 -39 75 -43z m3650 -9 c-11 -30 -29 -65
-40 -79 -13 -16 -10 -5 9 33 17 31 34 74 38 95 4 20 9 30 10 21 2 -9 -5 -40
-17 -70z m-146 52 c3 -5 -8 -11 -24 -15 -40 -8 -38 -22 5 -30 40 -8 56 -35 54
-89 l-2 -32 -6 30 c-11 56 -52 95 -76 75 -20 -17 -19 -37 3 -44 32 -10 66
-116 42 -131 -5 -3 -7 0 -4 9 4 9 -8 30 -30 52 -20 21 -39 48 -42 61 -7 28 4
93 18 111 12 14 54 16 62 3z m-3556 -98 c8 -7 29 -25 48 -40 43 -32 58 -58 46
-79 -7 -13 -19 -7 -71 39 -34 30 -71 68 -81 85 l-19 31 32 -12 c18 -6 38 -17
45 -24z m3112 1 c32 -14 71 -40 88 -57 28 -30 62 -108 62 -142 0 -18 -29 -20
-34 -2 -2 6 -9 32 -16 56 -8 29 -27 59 -60 92 -51 51 -91 70 -45 22 37 -39 64
-96 72 -148 6 -45 6 -45 -24 -45 -30 0 -30 1 -35 65 -3 37 -14 78 -25 97 -38
66 -120 96 -176 66 -20 -10 -21 -10 -9 5 28 34 115 30 202 -9z m305 -28 c10
-62 0 -78 -19 -34 -20 46 -21 78 -2 78 10 0 17 -16 21 -44z m-2395 -16 c6 -11
8 -20 6 -20 -3 0 -10 9 -16 20 -6 11 -8 20 -6 20 3 0 10 -9 16 -20z m1994 -1
c42 -33 27 -99 -23 -99 -25 0 -55 36 -47 55 9 24 39 14 46 -15 5 -22 7 -23 13
-7 12 31 8 46 -14 58 -35 18 -92 -4 -133 -53 -41 -48 -45 -45 -14 8 22 37 83
73 124 74 12 0 33 -9 48 -21z m34 9 c-2 -7 2 -12 9 -13 18 0 23 -10 29 -53 4
-35 1 -43 -27 -67 -24 -20 -39 -25 -58 -20 -46 11 -48 25 -3 25 34 0 45 5 59
26 16 26 16 28 -4 65 -11 21 -18 40 -15 43 9 9 12 7 10 -6z m692 -46 c0 -12
-4 -12 -20 3 -11 10 -20 25 -20 33 0 12 4 12 20 -3 11 -10 20 -25 20 -33z
m-260 -14 c11 -24 19 -56 19 -73 0 -26 -2 -24 -15 17 -8 26 -19 50 -24 53 -10
6 -14 45 -5 45 4 0 15 -19 25 -42z m220 10 c0 -5 -7 -8 -15 -4 -8 3 -15 0 -15
-7 0 -19 -21 -89 -25 -85 -6 6 15 91 27 105 11 14 28 9 28 -9z m-775 -17 c-6
-21 17 -85 41 -112 13 -15 13 -17 -6 -22 -14 -4 -24 1 -32 16 -19 36 -27 88
-17 113 10 29 23 32 14 5z m519 -63 c4 -22 3 -38 -3 -38 -5 0 -11 20 -13 45
-4 52 7 47 16 -7z m167 29 c-10 -9 -11 -8 -5 6 3 10 9 15 12 12 3 -3 0 -11 -7
-18z m118 -9 c6 -18 7 -28 2 -23 -10 12 -25 55 -18 55 3 0 10 -15 16 -32z
m-2698 -73 c6 -38 16 -79 21 -90 9 -19 9 -19 -6 -1 -14 17 -24 55 -40 156 -4
24 -3 30 3 20 6 -8 15 -46 22 -85z m1824 48 c-2 -10 -4 -30 -4 -45 -1 -18 -6
-28 -16 -28 -18 0 -18 2 -3 51 11 39 29 55 23 22z m48 -35 c4 -28 2 -38 -8
-38 -16 0 -28 44 -19 72 8 27 20 12 27 -34z m634 30 c-3 -8 -6 -5 -6 6 -1 11
2 17 5 13 3 -3 4 -12 1 -19z m-2851 -31 c53 -33 143 -107 130 -107 -12 0 -106
50 -179 96 -70 43 -71 44 -37 44 22 0 54 -13 86 -33z m2113 -17 c-6 -16 -15
-30 -20 -30 -13 0 -11 13 7 38 21 30 25 28 13 -8z m-1075 1 c21 -23 34 -101
18 -101 -7 0 -10 13 -7 33 l5 32 -10 -32 c-12 -38 -17 -40 -150 -48 -58 -3
-122 -8 -143 -11 -36 -6 -38 -4 -55 35 -22 52 -36 53 -27 1 4 -26 3 -40 -4
-40 -6 0 -11 20 -11 49 0 72 17 81 150 82 58 0 123 4 145 8 62 13 71 12 89 -8z
m221 4 c50 -8 118 -15 151 -15 37 0 65 -5 71 -12 16 -21 23 -48 13 -48 -6 0
-10 6 -10 14 0 8 -4 17 -9 20 -5 4 -7 -3 -4 -13 6 -22 -10 -26 -135 -35 -41
-3 -79 -9 -85 -14 -7 -5 -34 -7 -60 -4 -38 3 -50 9 -57 26 l-9 21 0 -22 c-1
-13 -6 -23 -12 -23 -18 0 0 72 24 98 11 12 23 22 26 22 3 0 47 -7 96 -15z
m-1454 -12 c13 -16 12 -17 -3 -5 -13 10 -17 10 -21 0 -4 -8 -6 -7 -6 5 -1 9 3
17 8 17 5 0 15 -8 22 -17z m774 -23 c10 -11 16 -20 13 -20 -3 0 -13 9 -23 20
-10 11 -16 20 -13 20 3 0 13 -9 23 -20z m-515 -47 c19 -8 48 -16 66 -17 17 -2
42 -11 55 -21 23 -17 22 -17 -53 -12 -72 5 -127 22 -114 34 3 4 -3 12 -14 20
-11 8 -25 24 -31 35 -12 22 -11 22 22 -1 19 -12 50 -29 69 -38z m-124 -14 c45
-27 87 -56 94 -64 20 -24 -81 -20 -128 4 -70 37 -96 65 -88 94 8 32 13 31 122
-34z m3208 29 c14 -19 16 -70 16 -355 l0 -332 -31 -45 c-18 -28 -38 -46 -50
-46 -29 0 -23 -27 9 -33 15 -3 38 -20 50 -37 24 -31 24 -36 29 -364 l6 -333
-59 -6 c-114 -12 -375 -30 -378 -26 -3 3 -16 456 -16 562 0 20 -5 27 -20 27
-20 0 -20 -7 -20 -298 l0 -299 -177 -12 c-98 -7 -196 -14 -219 -17 l-41 -6 -6
789 c-3 433 -4 790 -1 792 5 6 723 58 816 60 69 1 78 -1 92 -21z m-954 -85 c0
-27 3 -153 7 -280 3 -136 2 -233 -3 -233 -5 0 -92 -7 -194 -15 -102 -8 -195
-15 -207 -15 -22 0 -23 3 -23 110 0 61 -4 110 -9 110 -36 0 -41 -12 -41 -95 0
-45 3 -102 6 -126 l6 -44 167 12 c91 6 196 14 234 17 l67 6 0 -169 0 -168 -57
-6 c-32 -4 -138 -12 -235 -18 l-178 -12 0 -147 c0 -81 3 -149 6 -153 3 -3 12
-3 20 0 11 4 14 33 14 134 0 127 0 129 23 129 12 0 107 7 211 15 104 8 191 14
192 12 2 -1 4 -136 6 -300 l3 -297 -40 -5 c-22 -2 -206 -16 -410 -30 -203 -14
-391 -28 -416 -31 l-46 -5 -6 788 c-3 433 -4 790 -2 792 3 3 411 35 888 70 14
1 17 -7 17 -46z m-2021 -9 c2 -2 -14 -4 -37 -4 -22 0 -43 4 -46 9 -6 8 73 3
83 -5z m-948 -41 c18 -20 27 -32 19 -27 -8 5 -18 9 -22 9 -5 0 -7 3 -5 6 1 4
-7 16 -17 28 -33 36 -12 23 25 -16z m454 6 c16 -15 -78 -9 -105 7 -23 14 -21
14 35 8 33 -3 64 -10 70 -15z m1549 -11 c12 -19 15 -121 18 -600 3 -570 3
-578 -17 -598 -19 -18 -46 -22 -243 -37 l-222 -17 0 -166 0 -167 -177 -12
c-98 -6 -196 -14 -219 -17 l-41 -6 -6 789 c-3 433 -4 790 -1 792 5 6 716 58
811 60 75 1 84 -1 97 -21z m-961 -445 c4 -223 7 -578 7 -788 l0 -382 -177 -12
c-98 -7 -196 -14 -219 -17 l-41 -6 -6 789 c-3 433 -4 790 -1 792 4 5 294 28
375 30 l56 1 6 -407z m-481 280 c2 -54 5 -391 6 -750 3 -735 7 -698 -70 -728
-31 -11 -154 -24 -433 -44 -215 -16 -393 -26 -396 -22 -4 3 -9 358 -11 788
l-5 781 46 6 c81 10 381 29 385 25 2 -2 7 -278 11 -614 4 -335 9 -613 11 -617
2 -3 12 -4 22 -2 16 5 17 42 14 623 l-2 618 177 12 c98 7 185 14 193 15 49 11
48 11 52 -91z m2138 -1432 c0 -30 -6 -44 -22 -55 -31 -22 -95 -21 -106 2 -13
25 0 76 21 80 14 3 17 -4 17 -32 0 -29 4 -36 20 -36 19 0 29 14 44 63 10 31
26 18 26 -22z m-508 -61 c-9 -56 -35 -65 -67 -24 l-22 27 -11 -32 c-15 -42
-32 -31 -32 20 0 33 4 41 26 51 24 11 29 10 42 -10 18 -27 32 -28 32 -3 0 20
20 33 32 22 4 -4 4 -27 0 -51z m-548 1 c3 -5 -3 -11 -14 -14 -30 -8 -24 -29 6
-25 22 2 27 -1 30 -23 2 -24 -2 -27 -34 -33 -65 -10 -72 -8 -72 22 0 43 11 71
29 75 29 8 50 7 55 -2z m-460 -29 c2 -4 2 -27 -1 -49 -6 -46 -31 -66 -40 -33
-6 21 -6 21 -29 -1 -22 -21 -25 -21 -42 -6 -24 22 -29 21 -35 -3 -6 -22 -37
-28 -37 -7 1 84 33 116 76 76 l25 -23 25 27 c25 27 48 34 58 19z"/>
<path d="M5590 7448 c0 -4 4 -8 9 -8 6 0 12 4 15 8 3 5 -1 9 -9 9 -8 0 -15 -4
-15 -9z"/>
<path d="M5948 7343 c12 -2 30 -2 40 0 9 3 -1 5 -23 4 -22 0 -30 -2 -17 -4z"/>
<path d="M6028 7343 c7 -3 16 -2 19 1 4 3 -2 6 -13 5 -11 0 -14 -3 -6 -6z"/>
<path d="M4058 7323 c7 -3 16 -2 19 1 4 3 -2 6 -13 5 -11 0 -14 -3 -6 -6z"/>
<path d="M6126 7341 c-3 -4 6 -6 19 -3 14 2 25 6 25 8 0 8 -39 4 -44 -5z"/>
<path d="M6245 7320 c11 -5 27 -9 35 -9 9 0 8 4 -5 9 -11 5 -27 9 -35 9 -9 0
-8 -4 5 -9z"/>
<path d="M4960 7275 c54 -29 72 -32 39 -7 -13 11 -37 22 -54 25 -25 6 -23 3
15 -18z"/>
<path d="M4955 7170 c6 -10 64 -24 71 -17 3 2 -13 9 -36 15 -22 5 -38 6 -35 2z"/>
<path d="M5357 7255 c-30 -27 -25 -34 7 -10 10 8 23 12 27 9 5 -3 6 2 3 10 -7
19 -3 20 -37 -9z"/>
<path d="M5418 7133 c7 -3 16 -2 19 1 4 3 -2 6 -13 5 -11 0 -14 -3 -6 -6z"/>
<path d="M5836 6911 c-3 -5 10 -11 29 -13 37 -4 36 5 -2 16 -12 4 -24 3 -27
-3z"/>
<path d="M6023 6693 c-1 -24 -1 -25 7 -8 11 26 12 35 2 35 -4 0 -8 -12 -9 -27z"/>
<path d="M4369 6748 c-1 -2 -3 -16 -5 -33 l-3 -30 20 28 c12 15 26 24 32 21 7
-4 6 -1 -2 7 -10 11 -15 11 -18 2 -3 -7 -9 -13 -14 -13 -6 0 -7 5 -4 10 3 6 4
10 1 10 -3 0 -7 -1 -7 -2z"/>
<path d="M5345 6620 c-3 -5 -1 -10 4 -10 6 0 11 5 11 10 0 6 -2 10 -4 10 -3 0
-8 -4 -11 -10z"/>
<path d="M6584 6475 c21 -16 32 -13 21 4 -3 6 -14 11 -23 11 -15 -1 -15 -2 2
-15z"/>
<path d="M5502 6330 c0 -14 2 -19 5 -12 2 6 2 18 0 25 -3 6 -5 1 -5 -13z"/>
<path d="M4961 6354 c0 -11 3 -14 6 -6 3 7 2 16 -1 19 -3 4 -6 -2 -5 -13z"/>
<path d="M4674 5803 c27 -52 55 -93 56 -80 0 10 -71 127 -77 127 -2 0 8 -21
21 -47z"/>
<path d="M3600 5670 c0 -5 5 -10 11 -10 5 0 7 5 4 10 -3 6 -8 10 -11 10 -2 0
-4 -4 -4 -10z"/>
<path d="M3950 5716 c-36 -12 -78 -30 -95 -40 -32 -19 -30 -18 89 25 74 26
101 40 80 38 -5 0 -38 -10 -74 -23z"/>
<path d="M4210 5633 c-8 -2 -20 -19 -26 -38 -9 -29 -9 -33 2 -24 7 6 16 19 19
29 6 19 43 17 58 -4 5 -7 7 -4 5 8 -3 20 -33 35 -58 29z"/>
<path d="M4110 5535 c-14 -8 -20 -14 -14 -15 5 0 19 7 30 15 24 18 16 19 -16
0z"/>
<path d="M4055 5510 c-3 -6 1 -7 9 -4 18 7 21 14 7 14 -6 0 -13 -4 -16 -10z"/>
<path d="M6340 5692 c19 -8 38 -15 42 -14 21 5 139 -46 184 -79 58 -43 124
-115 120 -132 -2 -7 -1 -9 1 -4 3 4 10 4 16 0 16 -10 -19 45 -52 81 -48 52
-140 107 -231 136 -96 32 -137 38 -80 12z"/>
<path d="M6260 5500 c0 -5 -8 -7 -17 -3 -10 3 -6 -3 9 -15 29 -24 38 -27 38
-12 0 6 -7 10 -15 10 -9 0 -12 6 -9 15 4 8 3 15 0 15 -3 0 -6 -4 -6 -10z"/>
<path d="M4438 5558 c-17 -6 -28 -17 -28 -28 0 -10 -3 -26 -7 -35 -3 -10 10
-1 30 18 19 20 48 39 64 43 48 10 49 12 8 12 -22 0 -52 -4 -67 -10z"/>
<path d="M4530 5500 c8 -5 28 -10 44 -10 39 0 30 6 -19 13 -27 4 -35 3 -25 -3z"/>
<path d="M4518 5473 c12 -2 30 -2 40 0 9 3 -1 5 -23 4 -22 0 -30 -2 -17 -4z"/>
<path d="M4630 5471 c-21 -6 -17 -8 25 -13 28 -3 57 -2 65 3 10 6 5 7 -15 3
-23 -4 -26 -3 -15 5 12 9 10 11 -10 10 -14 -1 -36 -4 -50 -8z"/>
<path d="M4736 5452 c-3 -5 21 -17 52 -26 31 -10 62 -22 68 -27 12 -10 74 34
74 51 0 5 -11 -2 -24 -15 -23 -23 -26 -23 -73 -11 -27 7 -59 18 -70 25 -12 6
-24 7 -27 3z"/>
<path d="M4390 5404 c0 -8 5 -12 10 -9 6 3 10 10 10 16 0 5 -4 9 -10 9 -5 0
-10 -7 -10 -16z"/>
<path d="M4305 5269 c-18 -8 -18 -8 5 -6 20 2 25 -2 23 -18 -1 -11 0 -14 3 -7
4 9 12 7 32 -7 35 -24 92 -53 92 -46 0 2 -17 13 -37 24 -21 10 -51 31 -66 45
-15 14 -29 26 -30 25 -1 0 -11 -5 -22 -10z"/>
<path d="M4207 5142 c-20 -21 -23 -72 -5 -72 9 0 9 -3 1 -11 -19 -19 8 -59 84
-129 72 -66 209 -140 293 -159 152 -35 394 14 483 97 45 42 33 70 -14 33 -43
-33 -123 -70 -189 -87 -94 -24 -262 -15 -351 18 -114 42 -249 143 -276 207
-14 34 -10 84 9 109 17 20 -16 15 -35 -6z"/>
<path d="M4410 4986 c0 -2 8 -10 18 -17 15 -13 16 -12 3 4 -13 16 -21 21 -21
13z"/>
<path d="M5787 5453 c18 -2 50 -2 70 0 21 2 7 4 -32 4 -38 0 -55 -2 -38 -4z"/>
<path d="M6121 5114 c0 -11 3 -14 6 -6 3 7 2 16 -1 19 -3 4 -6 -2 -5 -13z"/>
<path d="M5723 5103 c9 -2 23 -2 30 0 6 3 -1 5 -18 5 -16 0 -22 -2 -12 -5z"/>
<path d="M6090 5058 c-15 -21 -17 -28 -6 -19 16 13 41 51 33 51 -2 0 -14 -15
-27 -32z"/>
<path d="M6000 4974 c-51 -37 -61 -49 -18 -24 20 11 42 28 48 36 16 19 11 17
-30 -12z"/>
<path d="M6111 4972 c-13 -25 -116 -112 -138 -117 -10 -2 -49 -16 -88 -31 -65
-25 -82 -27 -230 -28 l-160 -1 -77 33 c-59 26 -89 46 -124 85 l-47 52 21 -41
c24 -48 66 -85 131 -119 72 -36 128 -47 236 -46 194 1 314 43 428 150 44 41
75 81 63 81 -3 0 -10 -8 -15 -18z"/>
<path d="M3835 4910 c-3 -5 -1 -10 4 -10 6 0 11 5 11 10 0 6 -2 10 -4 10 -3 0
-8 -4 -11 -10z"/>
<path d="M6460 4785 c-18 -21 -3 -32 16 -13 10 9 12 18 6 22 -5 3 -15 -1 -22
-9z"/>
<path d="M4704 4636 c-10 -8 -17 -16 -14 -19 3 -2 14 4 24 14 23 22 18 25 -10
5z"/>
<path d="M4680 4586 c0 -15 -2 -16 -15 -6 -14 11 -14 10 -5 -14 28 -73 63 -98
144 -99 135 -2 336 49 336 84 0 5 -13 0 -29 -12 -17 -12 -36 -19 -46 -15 -9 3
-14 2 -11 -3 17 -26 -256 -37 -306 -12 -15 8 -36 32 -48 55 -12 24 -20 33 -20
22z"/>
<path d="M5141 4584 c0 -11 3 -14 6 -6 3 7 2 16 -1 19 -3 4 -6 -2 -5 -13z"/>
<path d="M5677 4625 c28 -20 21 -45 -25 -86 -30 -28 -45 -34 -94 -37 -100 -7
-225 27 -291 78 -37 30 -36 2 1 -38 37 -39 140 -71 252 -79 75 -5 91 -3 128
16 23 11 47 31 54 44 13 23 19 109 6 101 -3 -2 -9 0 -13 6 -3 5 -14 10 -23 10
-13 0 -12 -3 5 -15z"/>
<path d="M4296 4587 c3 -9 11 -15 17 -14 7 1 11 -3 10 -10 -1 -6 5 -17 14 -25
14 -11 16 -11 8 2 -6 8 -10 19 -10 24 0 5 -10 15 -23 24 -20 13 -22 13 -16 -1z"/>
<path d="M3460 4456 c0 -2 12 -12 28 -21 l27 -18 -19 21 c-17 20 -36 29 -36
18z"/>
<path d="M3520 4410 c0 -5 5 -10 11 -10 5 0 7 5 4 10 -3 6 -8 10 -11 10 -2 0
-4 -4 -4 -10z"/>
<path d="M6707 4493 c-13 -13 -7 -63 7 -63 21 0 30 20 16 33 -10 9 -11 9 -6 0
3 -6 2 -14 -3 -17 -5 -4 -7 7 -5 24 5 30 3 36 -9 23z"/>
<path d="M4747 4343 c-22 -22 12 -129 54 -169 28 -27 36 -29 126 -33 53 -1
113 2 133 8 50 15 90 54 90 87 0 26 -1 26 -19 10 -26 -23 -108 -54 -168 -62
-52 -6 -109 10 -146 44 -31 27 -69 93 -63 108 6 15 3 18 -7 7z"/>
<path d="M5235 4278 c16 -81 35 -103 108 -127 47 -16 186 -15 221 0 30 14 86
93 86 122 0 16 -5 15 -37 -13 -63 -56 -115 -73 -197 -66 -104 9 -115 11 -111
14 1 2 -10 16 -26 32 -16 16 -29 38 -29 49 0 12 -5 21 -11 21 -7 0 -8 -12 -4
-32z"/>
<path d="M5120 4076 c0 -2 8 -10 18 -17 15 -13 16 -12 3 4 -13 16 -21 21 -21
13z"/>
<path d="M6793 3673 c-15 -5 -17 -101 -7 -226 6 -66 10 -77 25 -77 18 0 19 11
19 155 0 158 -1 163 -37 148z"/>
<path d="M4871 3531 c-11 -7 -12 -38 -8 -162 4 -85 7 -209 7 -276 0 -116 1
-123 20 -123 20 0 20 7 20 285 0 294 -1 300 -39 276z"/>
<path d="M4948 2153 c7 -3 16 -2 19 1 4 3 -2 6 -13 5 -11 0 -14 -3 -6 -6z"/>
</g>
</svg>
